:SAMPLES-PER-SECOND 30
:FULLY-SPECIFIED
:DEGREES
16
root  -88.9226 37.6529 0.500126 -119.28 81.2348 -116.563
RightUpLeg  -20.704 -1.63848 12.5285
RightLeg  27.6621 4.29342 -3.02898
RightFoot  -5.42183 0.317058 -4.70658
RightToes  -1.74624e-010 -1.59028e-015 9.93923e-017
Spine  2.39012 -4.35306 4.1177
Spine1  14.5455 -5.74326 6.18127
HEad  -7.7451 7.18212 0.858074
LeftShoulder1  9.93923e-017 0 1.22299e-017
LeftArm  24.9785 0.699849 -79.4635
LeftForeArm  -44.0242 -26.9981 17.4771
LeftHand  0.786672 5.72139 1.31305
RightShoulder  1.98785e-016 -4.96962e-017 1.55301e-017
RightArm  13.6828 -46.4289 79.322
RightForeArm  -26.8465 14.8397 0.698427
RightHand  1.50926 -14.4961 -2.30742
LeftUpLeg  -7.66908 -2.54556 11.7371
LeftLeg  59.5165 -7.068 9.3091
LeftFoot  16.881 0.412243 -1.33536
LeftToes  2.64666e-010 -8.50449e-011 8.41596e-012
17
root  -87.0764 38.0383 0.66206 -123.621 81.4098 -121.27
RightUpLeg  -17.1039 -0.65573 12.2724
RightLeg  26.164 3.0905 -3.45973
RightFoot  -7.65599 0.191842 -4.02808
RightToes  -1.74624e-010 -1.59028e-015 9.93923e-017
Spine  2.31544 -3.20614 4.70609
Spine1  14.2313 -4.28463 5.39421
HEad  -7.07183 4.23688 2.00386
LeftShoulder1  9.93923e-017 0 1.22299e-017
LeftArm  24.822 7.16075 -81.78
LeftForeArm  -42.5634 -23.6509 12.4487
LeftHand  0.799451 5.76902 0.855549
RightShoulder  1.98785e-016 -4.96962e-017 1.55301e-017
RightArm  21.682 -42.4325 81.6383
RightForeArm  -33.7279 17.1646 -2.80239
RightHand  1.48878 -13.9801 -2.8826
LeftUpLeg  -14.3008 -3.9598 9.96165
LeftLeg  61.4838 -8.90916 6.46153
LeftFoot  13.268 0.27763 -1.02281
LeftToes  2.64666e-010 -8.50449e-011 8.41596e-012
18
root  -85.1998 38.3679 0.776207 -124.999 82.2066 -122.962
RightUpLeg  -13.2027 0.828784 11.7921
RightLeg  24.3466 1.82444 -3.76753
RightFoot  -9.80595 0.0980336 -3.42463
RightToes  -1.74624e-010 -1.59028e-015 9.93923e-017
Spine  2.62326 -1.81587 5.92514
Spine1  13.3317 -2.20549 3.43466
HEad  -6.62049 1.51905 3.01484
LeftShoulder1  9.93923e-017 0 1.22299e-017
LeftArm  14.0247 14.3845 -82.449
LeftForeArm  -31.7009 -19.937 3.65124
LeftHand  0.848612 6.08337 0.559737
RightShoulder  1.98785e-016 -4.96962e-017 1.55301e-017
RightArm  28.4794 -38.9322 83.1842
RightForeArm  -40.827 18.9422 -7.3578
RightHand  1.44153 -13.3195 -3.38798
LeftUpLeg  -19.9005 -5.27655 7.79543
LeftLeg  60.1364 -9.97421 3.80656
LeftFoot  10.7824 0.432358 -1.86692
LeftToes  2.64666e-010 -8.50449e-011 8.41596e-012
19
root  -83.2794 38.6461 0.857097 -121.79 83.7123 -120.079
RightUpLeg  -8.97605 2.51999 11.0531
RightLeg  22.0522 0.923996 -3.67023
RightFoot  -11.8338 0.0349987 -3.26692
RightToes  -1.74624e-010 -1.59028e-015 9.93923e-017
Spine  2.6699 -0.221697 7.59229
Spine1  12.8307 0.357831 0.0643285
HEad  -6.73684 -0.836085 4.07529
LeftShoulder1  9.93923e-017 0 1.22299e-017
LeftArm  6.10996 22.3078 -81.5617
LeftForeArm  -24.6632 -15.7317 -1.69263
LeftHand  0.928285 6.605 -0.0806064
RightShoulder  1.98785e-016 -4.96962e-017 1.55301e-017
RightArm  33.6395 -35.437 84.1289
RightForeArm  -48.0165 19.9584 -12.4697
RightHand  1.36263 -12.8705 -2.99868
LeftUpLeg  -24.2208 -5.71237 5.70144
LeftLeg  55.583 -9.76023 3.13146
LeftFoot  8.22036 0.456281 -2.25923
LeftToes  2.64666e-010 -8.50449e-011 8.41596e-012
20
root  -81.3485 38.8458 0.912851 -112.059 85.3154 -110.78
RightUpLeg  -4.77486 4.02726 10.3397
RightLeg  19.3561 0.641483 -3.28947
RightFoot  -13.3956 -0.00962428 -3.47687
RightToes  -1.74624e-010 -1.59028e-015 9.93923e-017
Spine  2.23118 1.39423 9.3633
Spine1  13.2126 2.96944 -3.744
HEad  -7.45286 -2.99909 5.31415
LeftShoulder1  9.93923e-017 0 1.22299e-017
LeftArm  3.63752 30.5104 -79.3806
LeftForeArm  -21.4425 -12.9241 -4.02637
LeftHand  0.972653 6.91503 -0.426061
RightShoulder  1.98785e-016 -4.96962e-017 1.55301e-017
RightArm  36.9495 -31.5355 84.3739
RightForeArm  -53.3747 20.4496 -17.3334
RightHand  1.29567 -12.8278 -1.92725
LeftUpLeg  -27.6576 -5.32718 4.06511
LeftLeg  48.5117 -8.64262 3.39594
LeftFoot  5.77041 0.456356 -2.60447
LeftToes  2.64666e-010 -8.50449e-011 8.41596e-012
21
root  -79.4477 38.8356 0.937098 -93.8031 86.1548 -92.9546
RightUpLeg  -1.09201 4.88318 10.1611
RightLeg  17.424 1.07517 -3.10904
RightFoot  -15.1826 -0.0629785 -3.47238
RightToes  -1.74624e-010 -1.59028e-015 9.93923e-017
Spine  1.87699 2.87948 11.4078
Spine1  14.0301 5.36457 -7.03776
HEad  -8.99494 -4.79303 6.51218
LeftShoulder1  9.93923e-017 0 1.22299e-017
LeftArm  3.73488 38.7107 -76.1383
LeftForeArm  -19.0462 -11.4324 -4.91382
LeftHand  0.981551 6.98034 -0.452946
RightShoulder  1.98785e-016 -4.96962e-017 1.55301e-017
RightArm  37.3654 -27.0045 83.7567
RightForeArm  -53.9397 21.2339 -20.4624
RightHand  1.28337 -13.0159 -1.35758
LeftUpLeg  -30.5822 -4.64661 3.2152
LeftLeg  40.2548 -7.90357 2.78634
LeftFoot  4.66362 0.543646 -3.32892
LeftToes  2.64666e-010 -8.50449e-011 8.41596e-012
22
root  -77.5562 38.613 0.946497 -74.3918 86.0163 -73.8404
RightUpLeg  2.39736 5.36688 10.487
RightLeg  16.299 1.57753 -3.18141
RightFoot  -17.4306 -0.124238 -3.25182
RightToes  -1.74624e-010 -1.59028e-015 9.93923e-017
Spine  1.61552 4.20818 13.4544
Spine1  15.3746 7.45673 -9.46534
HEad  -11.5157 -6.12749 7.46097
LeftShoulder1  9.93923e-017 0 1.22299e-017
LeftArm  4.951 46.643 -71.8465
LeftForeArm  -17.1135 -11.2508 -4.68926
LeftHand  0.990267 7.04231 -0.867507
RightShoulder  1.98785e-016 -4.96962e-017 1.55301e-017
RightArm  35.5726 -21.7843 82.4145
RightForeArm  -50.4136 22.7454 -21.599
RightHand  1.30607 -13.0425 -1.6982
LeftUpLeg  -32.8652 -4.09074 3.0798
LeftLeg  31.458 -7.57623 1.71774
LeftFoot  4.19667 0.59189 -3.74143
LeftToes  2.64666e-010 -8.50449e-011 8.41596e-012
23
root  -75.6375 38.2847 0.971903 -65.0898 85.5251 -64.8814
RightUpLeg  6.11599 5.20983 10.9175
RightLeg  14.806 2.00558 -3.17041
RightFoot  -19.6202 -0.202436 -3.50864
RightToes  -1.74624e-010 -1.59028e-015 9.93923e-017
Spine  0.726353 5.42937 14.7233
Spine1  17.8403 9.15754 -10.5829
HEad  -14.6927 -7.31745 8.20578
LeftShoulder1  9.93923e-017 0 1.22299e-017
LeftArm  7.57601 53.8791 -66.4937
LeftForeArm  -16.2765 -12.1448 -3.69526
LeftHand  0.989643 7.03063 -1.61427
RightShoulder  1.98785e-016 -4.96962e-017 1.55301e-017
RightArm  34.6147 -16.3477 80.6845
RightForeArm  -47.3143 24.1659 -22.6403
RightHand  1.31951 -12.8643 -2.26447
LeftUpLeg  -34.6545 -3.73246 3.30653
LeftLeg  22.327 -5.6532 1.44957
LeftFoot  3.49005 0.597928 -3.9563
LeftToes  2.64666e-010 -8.50449e-011 8.41596e-012
24
root  -73.6837 37.8494 1.02191 -66.4749 85.2419 -66.9201
RightUpLeg  9.66567 4.31629 11.2305
RightLeg  13.02 2.25548 -2.93509
RightFoot  -21.8451 -0.303648 -3.9586
RightToes  -1.74624e-010 -1.59028e-015 9.93923e-017
Spine  -0.612112 6.57355 14.8961
Spine1  20.7222 10.3534 -10.1584
HEad  -18.0352 -8.76505 8.87656
LeftShoulder1  9.93923e-017 0 1.22299e-017
LeftArm  11.1505 60.0429 -60.0962
LeftForeArm  -16.1327 -13.2391 -2.49816
LeftHand  0.963363 6.8168 -1.98338
RightShoulder  1.98785e-016 -4.96962e-017 1.55301e-017
RightArm  32.9782 -11.5526 78.6376
RightForeArm  -44.1354 25.4772 -23.6711
RightHand  1.3205 -12.7084 -2.59731
LeftUpLeg  -36.7415 -3.28638 3.35543
LeftLeg  14.2042 -1.82342 1.49973
LeftFoot  3.03935 0.641452 -4.3743
LeftToes  2.64666e-010 -8.50449e-011 8.41596e-012
25
root  -71.6836 37.2382 1.08859 -73.3189 85.2569 -74.6657
RightUpLeg  12.5757 3.5356 11.4813
RightLeg  12.25 1.89225 -2.76083
RightFoot  -24.3086 -0.336117 -3.43018
RightToes  -1.74624e-010 -1.59028e-015 9.93923e-017
Spine  -1.17356 7.63601 14.3152
Spine1  22.3814 11.2229 -9.08956
HEad  -21.324 -10.6042 9.62312
LeftShoulder1  9.93923e-017 0 1.22299e-017
LeftArm  16.3822 64.9206 -52.2881
LeftForeArm  -17.3787 -14.6771 -0.914252
LeftHand  0.933128 6.58941 -1.57108
RightShoulder  1.98785e-016 -4.96962e-017 1.55301e-017
RightArm  30.6412 -8.05044 76.5215
RightForeArm  -41.3363 26.5758 -24.5686
RightHand  1.32609 -12.6474 -2.8257
LeftUpLeg  -39.6993 -2.73431 2.78084
LeftLeg  9.64959 0.92053 1.2661
LeftFoot  2.7215 0.67242 -4.6887
LeftToes  2.64666e-010 -8.50449e-011 8.41596e-012
26
root  -69.5814 36.5102 1.16811 -78.2314 85.7774 -80.6165
RightUpLeg  14.9671 3.22231 11.3183
RightLeg  12.8051 1.26226 -2.94647
RightFoot  -26.3211 -0.239675 -2.04814
RightToes  -1.74624e-010 -1.59028e-015 9.93923e-017
Spine  -0.780974 8.63186 13.1835
Spine1  22.6018 12.2266 -8.66088
HEad  -24.3419 -12.5472 10.7288
LeftShoulder1  9.93923e-017 0 1.22299e-017
LeftArm  25.5721 68.2407 -42.8071
LeftForeArm  -21.9529 -17.0453 1.62871
LeftHand  0.922277 6.54897 -0.454258
RightShoulder  1.98785e-016 -4.96962e-017 1.55301e-017
RightArm  28.2177 -5.80046 75.0304
RightForeArm  -39.6526 27.3294 -25.1843
RightHand  1.31859 -12.5695 -2.85747
LeftUpLeg  -43.3901 -3.1034 2.11819
LeftLeg  10.7482 1.42976 1.51942
LeftFoot  1.61794 0.615406 -4.62417
LeftToes  2.64666e-010 -8.50449e-011 8.41596e-012
